<svg width="146" height="28" viewBox="0 0 146 28" fill="none" xmlns="http://www.w3.org/2000/svg">
<path d="M6.904 21.182C5.69067 21.182 4.59867 20.974 3.628 20.558C2.65733 20.1247 1.89467 19.518 1.34 18.738C0.785333 17.958 0.508 17.048 0.508 16.008H3.68C3.74933 16.788 4.05267 17.4293 4.59 17.932C5.14467 18.4347 5.916 18.686 6.904 18.686C7.92667 18.686 8.724 18.4433 9.296 17.958C9.868 17.4553 10.154 16.814 10.154 16.034C10.154 15.4273 9.972 14.9333 9.608 14.552C9.26133 14.1707 8.81933 13.876 8.282 13.668C7.762 13.46 7.034 13.2347 6.098 12.992C4.91933 12.68 3.95733 12.368 3.212 12.056C2.484 11.7267 1.86 11.224 1.34 10.548C0.82 9.872 0.56 8.97067 0.56 7.844C0.56 6.804 0.82 5.894 1.34 5.114C1.86 4.334 2.588 3.736 3.524 3.32C4.46 2.904 5.54333 2.696 6.774 2.696C8.52467 2.696 9.95467 3.138 11.064 4.022C12.1907 4.88867 12.8147 6.08467 12.936 7.61H9.66C9.608 6.95133 9.296 6.388 8.724 5.92C8.152 5.452 7.398 5.218 6.462 5.218C5.61267 5.218 4.91933 5.43467 4.382 5.868C3.84467 6.30133 3.576 6.92533 3.576 7.74C3.576 8.29467 3.74067 8.754 4.07 9.118C4.41667 9.46467 4.85 9.742 5.37 9.95C5.89 10.158 6.60067 10.3833 7.502 10.626C8.698 10.9553 9.66867 11.2847 10.414 11.614C11.1767 11.9433 11.818 12.4547 12.338 13.148C12.8753 13.824 13.144 14.734 13.144 15.878C13.144 16.7967 12.8927 17.6633 12.39 18.478C11.9047 19.2927 11.1853 19.9513 10.232 20.454C9.296 20.9393 8.18667 21.182 6.904 21.182ZM20.0994 9.092V17.022C20.0994 17.5593 20.2207 17.9493 20.4634 18.192C20.7234 18.4173 21.1567 18.53 21.7634 18.53H23.5834V21H21.2434C19.9087 21 18.8861 20.688 18.1754 20.064C17.4647 19.44 17.1094 18.426 17.1094 17.022V9.092H15.4194V6.674H17.1094V3.112H20.0994V6.674H23.5834V9.092H20.0994ZM25.3272 13.772C25.3272 12.3333 25.6219 11.0593 26.2112 9.95C26.8179 8.84067 27.6326 7.98267 28.6552 7.376C29.6952 6.752 30.8392 6.44 32.0872 6.44C33.2139 6.44 34.1932 6.66533 35.0252 7.116C35.8746 7.54933 36.5506 8.09533 37.0532 8.754V6.674H40.0432V21H37.0532V18.868C36.5506 19.544 35.8659 20.1073 34.9992 20.558C34.1326 21.0087 33.1446 21.234 32.0352 21.234C30.8046 21.234 29.6779 20.922 28.6552 20.298C27.6326 19.6567 26.8179 18.7727 26.2112 17.646C25.6219 16.502 25.3272 15.2107 25.3272 13.772ZM37.0532 13.824C37.0532 12.836 36.8452 11.978 36.4292 11.25C36.0306 10.522 35.5019 9.96733 34.8432 9.586C34.1846 9.20467 33.4739 9.014 32.7112 9.014C31.9486 9.014 31.2379 9.20467 30.5792 9.586C29.9206 9.95 29.3832 10.496 28.9672 11.224C28.5686 11.9347 28.3692 12.784 28.3692 13.772C28.3692 14.76 28.5686 15.6267 28.9672 16.372C29.3832 17.1173 29.9206 17.6893 30.5792 18.088C31.2552 18.4693 31.9659 18.66 32.7112 18.66C33.4739 18.66 34.1846 18.4693 34.8432 18.088C35.5019 17.7067 36.0306 17.152 36.4292 16.424C36.8452 15.6787 37.0532 14.812 37.0532 13.824ZM56.8323 6.674L48.0443 27.734H44.9763L47.8883 20.766L42.2463 6.674H45.5483L49.5783 17.594L53.7643 6.674H56.8323Z" fill="#3252DF"/>
<path d="M58.0811 13.824C58.0811 12.3507 58.3758 11.0593 58.9651 9.95C59.5718 8.82333 60.4038 7.95667 61.4611 7.35C62.5185 6.74333 63.7318 6.44 65.1011 6.44C66.8345 6.44 68.2645 6.856 69.3911 7.688C70.5351 8.50267 71.3065 9.67267 71.7051 11.198H68.5071C68.2471 10.4873 67.8311 9.93267 67.2591 9.534C66.6871 9.13533 65.9678 8.936 65.1011 8.936C63.8878 8.936 62.9171 9.36933 62.1891 10.236C61.4785 11.0853 61.1231 12.2813 61.1231 13.824C61.1231 15.3667 61.4785 16.5713 62.1891 17.438C62.9171 18.3047 63.8878 18.738 65.1011 18.738C66.8171 18.738 67.9525 17.984 68.5071 16.476H71.7051C71.2891 17.932 70.5091 19.0933 69.3651 19.96C68.2211 20.8093 66.7998 21.234 65.1011 21.234C63.7318 21.234 62.5185 20.9307 61.4611 20.324C60.4038 19.7 59.5718 18.8333 58.9651 17.724C58.3758 16.5973 58.0811 15.2973 58.0811 13.824ZM73.671 13.772C73.671 12.3333 73.9657 11.0593 74.555 9.95C75.1617 8.84067 75.9763 7.98267 76.999 7.376C78.039 6.752 79.183 6.44 80.431 6.44C81.5577 6.44 82.537 6.66533 83.369 7.116C84.2183 7.54933 84.8943 8.09533 85.397 8.754V6.674H88.387V21H85.397V18.868C84.8943 19.544 84.2097 20.1073 83.343 20.558C82.4763 21.0087 81.4883 21.234 80.379 21.234C79.1483 21.234 78.0217 20.922 76.999 20.298C75.9763 19.6567 75.1617 18.7727 74.555 17.646C73.9657 16.502 73.671 15.2107 73.671 13.772ZM85.397 13.824C85.397 12.836 85.189 11.978 84.773 11.25C84.3743 10.522 83.8457 9.96733 83.187 9.586C82.5283 9.20467 81.8177 9.014 81.055 9.014C80.2923 9.014 79.5817 9.20467 78.923 9.586C78.2643 9.95 77.727 10.496 77.311 11.224C76.9123 11.9347 76.713 12.784 76.713 13.772C76.713 14.76 76.9123 15.6267 77.311 16.372C77.727 17.1173 78.2643 17.6893 78.923 18.088C79.599 18.4693 80.3097 18.66 81.055 18.66C81.8177 18.66 82.5283 18.4693 83.187 18.088C83.8457 17.7067 84.3743 17.152 84.773 16.424C85.189 15.6787 85.397 14.812 85.397 13.824ZM95.7381 9.092V17.022C95.7381 17.5593 95.8594 17.9493 96.1021 18.192C96.3621 18.4173 96.7954 18.53 97.4021 18.53H99.2221V21H96.8821C95.5474 21 94.5247 20.688 93.8141 20.064C93.1034 19.44 92.7481 18.426 92.7481 17.022V9.092H91.0581V6.674H92.7481V3.112H95.7381V6.674H99.2221V9.092H95.7381ZM103.462 4.776C102.925 4.776 102.474 4.594 102.11 4.23C101.746 3.866 101.564 3.41533 101.564 2.878C101.564 2.34067 101.746 1.89 102.11 1.526C102.474 1.162 102.925 0.979999 103.462 0.979999C103.982 0.979999 104.424 1.162 104.788 1.526C105.152 1.89 105.334 2.34067 105.334 2.878C105.334 3.41533 105.152 3.866 104.788 4.23C104.424 4.594 103.982 4.776 103.462 4.776ZM104.918 6.674V21H101.954V6.674H104.918ZM115.023 21.234C113.671 21.234 112.449 20.9307 111.357 20.324C110.265 19.7 109.407 18.8333 108.783 17.724C108.159 16.5973 107.847 15.2973 107.847 13.824C107.847 12.368 108.168 11.0767 108.809 9.95C109.451 8.82333 110.326 7.95667 111.435 7.35C112.545 6.74333 113.784 6.44 115.153 6.44C116.523 6.44 117.762 6.74333 118.871 7.35C119.981 7.95667 120.856 8.82333 121.497 9.95C122.139 11.0767 122.459 12.368 122.459 13.824C122.459 15.28 122.13 16.5713 121.471 17.698C120.813 18.8247 119.911 19.7 118.767 20.324C117.641 20.9307 116.393 21.234 115.023 21.234ZM115.023 18.66C115.786 18.66 116.497 18.478 117.155 18.114C117.831 17.75 118.377 17.204 118.793 16.476C119.209 15.748 119.417 14.864 119.417 13.824C119.417 12.784 119.218 11.9087 118.819 11.198C118.421 10.47 117.892 9.924 117.233 9.56C116.575 9.196 115.864 9.014 115.101 9.014C114.339 9.014 113.628 9.196 112.969 9.56C112.328 9.924 111.817 10.47 111.435 11.198C111.054 11.9087 110.863 12.784 110.863 13.824C110.863 15.3667 111.253 16.5627 112.033 17.412C112.831 18.244 113.827 18.66 115.023 18.66ZM132.617 6.44C133.744 6.44 134.749 6.674 135.633 7.142C136.535 7.61 137.237 8.30333 137.739 9.222C138.242 10.1407 138.493 11.25 138.493 12.55V21H135.555V12.992C135.555 11.7093 135.235 10.73 134.593 10.054C133.952 9.36067 133.077 9.014 131.967 9.014C130.858 9.014 129.974 9.36067 129.315 10.054C128.674 10.73 128.353 11.7093 128.353 12.992V21H125.389V6.674H128.353V8.312C128.839 7.72267 129.454 7.26333 130.199 6.934C130.962 6.60467 131.768 6.44 132.617 6.44ZM143.47 21.182C142.933 21.182 142.482 21 142.118 20.636C141.754 20.272 141.572 19.8213 141.572 19.284C141.572 18.7467 141.754 18.296 142.118 17.932C142.482 17.568 142.933 17.386 143.47 17.386C143.99 17.386 144.432 17.568 144.796 17.932C145.16 18.296 145.342 18.7467 145.342 19.284C145.342 19.8213 145.16 20.272 144.796 20.636C144.432 21 143.99 21.182 143.47 21.182Z" fill="#152C5B"/>
</svg>
